# xmcd
#
# Track frame offsets:
# 150
# 9547
# 20516
# 30852
# 42801
# 53054
# 63911
# 73856
# 84423
# 96129
# 107834
# 120519
#
# Disc length: 1757 seconds
#
#
# Revision: 0
# Processed by: cddbd v1.4PL0 Copyright (c) Steve Scherf et al.
# Submitted via: FreeRIP 2.00 
#
DISCID=8d06db0c
DTITLE=George Jones - The Race Is On
DYEAR=1965
DGENRE=Country
TTITLE0=The Race Is On
TTITLE1=Don't Let The Stars Get In Your Eyes
TTITLE2=I'll Never Let Go Of You
TTITLE3=She's Mine
TTITLE4=Three's A Crowd
TTITLE5=They'll Never Take Her Love From Me
TTITLE6=Your Heart Turned Left
TTITLE7=Ain't It Funny What A Fool Will Do
TTITLE8=It Scares Me Half To Death
TTITLE9=World's Worse Loser
TTITLE10=Time Changes Everything
TTITLE11=Take Me As I Am
EXTD=United Artists UAS 6422
EXTT0=
EXTT1=
EXTT2=
EXTT3=
EXTT4=
EXTT5=
EXTT6=
EXTT7=
EXTT8=
EXTT9=
EXTT10=
EXTT11=
PLAYORDER=
